<svg width="18" height="17" viewBox="0 0 18 17" fill="none" xmlns="http://www.w3.org/2000/svg">
<path fill-rule="evenodd" clip-rule="evenodd" d="M1.89176 2.27671C1.89176 2.27068 1.8928 2.26732 1.89381 2.26493C1.89509 2.2619 1.89735 2.25828 1.90084 2.25478C1.90433 2.25129 1.90796 2.24903 1.91099 2.24775C1.91338 2.24674 1.91674 2.2457 1.92276 2.2457H16.0772C16.0833 2.2457 16.0866 2.24674 16.089 2.24775C16.092 2.24903 16.0957 2.25129 16.0992 2.25478C16.1027 2.25828 16.1049 2.2619 16.1062 2.26493C16.1072 2.26732 16.1082 2.27068 16.1082 2.27671V11.0618C16.1082 11.0678 16.1072 11.0711 16.1062 11.0735C16.1049 11.0766 16.1026 11.0802 16.0992 11.0837C16.0957 11.0872 16.092 11.0894 16.089 11.0907C16.0866 11.0917 16.0833 11.0928 16.0772 11.0928H15.7209C15.718 11.0927 15.7151 11.0927 15.7121 11.0927C15.7092 11.0927 15.7063 11.0927 15.7033 11.0928H2.29739C2.29447 11.0927 2.29153 11.0927 2.2886 11.0927C2.28566 11.0927 2.28273 11.0927 2.2798 11.0928H1.92276C1.91674 11.0928 1.91338 11.0917 1.91099 11.0907C1.90796 11.0894 1.90433 11.0872 1.90084 11.0837C1.89735 11.0802 1.89509 11.0766 1.89381 11.0735C1.8928 11.0711 1.89176 11.0678 1.89176 11.0618V2.27671ZM1.34272 12.8955C0.564294 12.6495 0 11.9215 0 11.0618V2.27671C0 1.21479 0.860851 0.353943 1.92276 0.353943H16.0772C17.1391 0.353943 18 1.21479 18 2.27671V11.0618C18 11.9213 17.4361 12.649 16.658 12.8953V14.7233C16.658 15.7852 15.7972 16.6461 14.7352 16.6461H3.26548C2.20357 16.6461 1.34272 15.7852 1.34272 14.7233V12.8955ZM3.23448 12.9845V14.7233C3.23448 14.7293 3.23551 14.7327 3.23653 14.7351C3.23781 14.7381 3.24007 14.7417 3.24356 14.7452C3.24705 14.7487 3.25068 14.751 3.2537 14.7523C3.2561 14.7533 3.25946 14.7543 3.26548 14.7543H14.7352C14.7413 14.7543 14.7446 14.7533 14.747 14.7523C14.75 14.751 14.7537 14.7487 14.7572 14.7452C14.7607 14.7417 14.7629 14.7381 14.7642 14.7351C14.7652 14.7327 14.7662 14.7293 14.7662 14.7233V12.9845H3.23448Z" fill="currentColor"/>
</svg>
