<svg width="18" height="19" viewBox="0 0 18 19" fill="none" xmlns="http://www.w3.org/2000/svg">
<path d="M8.83871 2.03552C8.88378 1.96304 8.98927 1.96304 9.03434 2.03552L11.2819 5.65036C11.5831 6.1349 12.0617 6.48261 12.6156 6.6194L12.8642 5.61305L12.6156 6.6194L16.7481 7.63989C16.8309 7.66035 16.8635 7.76068 16.8085 7.82593L14.0651 11.0805C13.6974 11.5168 13.5146 12.0794 13.5557 12.6485L13.8621 16.894C13.8683 16.9791 13.7829 17.0411 13.7039 17.009L9.76084 15.4056C9.23231 15.1906 8.64074 15.1906 8.1122 15.4056L4.16917 17.009C4.09011 17.0411 4.00476 16.9791 4.0109 16.894L4.31736 12.6485C4.35844 12.0794 4.17563 11.5168 3.8079 11.0805L3.01533 11.7486L3.8079 11.0805L1.06452 7.82594C1.00951 7.76068 1.04211 7.66035 1.12497 7.63989L5.2574 6.6194C5.81132 6.48261 6.28992 6.1349 6.59118 5.65036L8.83871 2.03552Z" stroke="currentColor" fill="none" stroke-width="2.07316"/>
</svg>
